<svg
   xmlns="http://www.w3.org/2000/svg"
   width="512"
   height="512"
>
  <path
     d="m 490.24599,330.02643 -215.114,-107.559 c -15.738,-7.86 -34.526,-7.86 -50.265,0.002 L 9.7509856,330.02843 c -9.712,4.861 -15.747,14.627 -15.747,25.486 0,10.861 6.035,20.626 15.751,25.489 l 215.1160044,107.558 c 7.868,3.93 16.497,5.894 25.128,5.894 8.631,0 17.265,-1.965 25.134,-5.897 l 215.113,-107.556 c 10e-4,-10e-4 0.002,-10e-4 0.004,-0.002 9.712,-4.861 15.747,-14.627 15.747,-25.487 0,-10.86 -6.035,-20.624 -15.751,-25.487 z m -10.623,29.726 -215.108,107.554 c -9.088,4.539 -19.939,4.539 -29.025,0.002 L 20.383986,359.75543 c -2.281,-1.142 -2.622,-3.147 -2.622,-4.241 0,-1.093 0.341,-3.098 2.618,-4.237 l 215.110004,-107.555 c 4.544,-2.27 9.528,-3.405 14.514,-3.405 4.983,0 9.967,1.135 14.508,3.403 l 215.108,107.554 c 2.281,1.142 2.622,3.147 2.622,4.24 0,1.094 -0.341,3.097 -2.619,4.238 z" 
     style="fill:rgba(254,251,218,.4)"/>
  <path
     d="M 242.47838,469.55606 C 241.265,469.37531 190.42743,444.31155 129.50601,413.8588 51.010812,374.62147 18.63125,358.07515 18.367264,357.06567 c -0.204884,-0.78348 -0.09271,-2.18089 0.249279,-3.10537 0.880215,-2.37945 218.617957,-111.28278 225.324607,-112.69796 3.43488,-0.72481 5.9957,-0.76582 10.30992,-0.16513 5.45142,0.75903 11.29834,3.58222 116.32907,56.16948 105.08421,52.61404 110.60142,55.47734 110.83578,57.52119 0.13565,1.183 -0.19439,2.68232 -0.73342,3.3318 -1.41142,1.70066 -216.90928,109.31134 -221.82975,110.77255 -3.82423,1.13568 -11.1994,1.43468 -16.37437,0.66383 z"
     style="fill:rgba(254,251,218,.2)"/>
  <path
     d="m 490.24599,230.51189 -215.114,-107.559 c -15.738,-7.86 -34.526,-7.86 -50.265,0.002 L 9.7509873,230.51389 c -9.712,4.861 -15.747,14.627 -15.747,25.486 0,10.861 6.035,20.626 15.751,25.489 l 215.1160027,107.558 c 7.868,3.93 16.497,5.894 25.128,5.894 8.631,0 17.265,-1.965 25.134,-5.897 l 215.113,-107.556 c 10e-4,-10e-4 0.002,-10e-4 0.004,-0.002 9.712,-4.861 15.747,-14.627 15.747,-25.487 0,-10.86 -6.035,-20.624 -15.751,-25.487 z m -10.623,29.726 -215.108,107.554 c -9.088,4.539 -19.939,4.539 -29.025,0.002 L 20.383987,260.24089 c -2.281,-1.142 -2.622,-3.147 -2.622,-4.241 0,-1.093 0.341,-3.098 2.618,-4.237 l 215.110003,-107.555 c 4.544,-2.27 9.528,-3.405 14.514,-3.405 4.983,0 9.967,1.135 14.508,3.403 l 215.108,107.554 c 2.281,1.142 2.622,3.147 2.622,4.24 0,1.094 -0.341,3.097 -2.619,4.238 z" 
     style="fill:rgba(254,251,218,.7)"/>
  <path
     d="M 242.01509,369.74335 C 239.8354,369.15602 188.6927,343.95172 128.36465,313.73382 24.149057,261.53296 18.664967,258.68488 18.430637,256.64126 c -0.13565,-1.18301 0.19439,-2.68231 0.73341,-3.33179 1.33735,-1.61141 215.205643,-108.48673 220.996893,-110.43766 5.37118,-1.80942 12.48527,-2.00971 18.06238,-0.50851 2.10464,0.56651 53.13374,25.68977 113.39801,55.82947 80.21513,40.11763 109.70165,55.20984 110.05755,56.3312 0.26739,0.84247 0.10632,2.24151 -0.35794,3.10898 -1.16963,2.18546 -219.27039,111.22116 -224.85727,112.41349 -5.23219,1.11663 -9.51307,1.02683 -14.44858,-0.30309 z"
     style="fill:rgba(254,251,218,.5)"/>
  <path
     d="M 490.24599,130.99734 275.13199,23.438337 c -15.738,-7.86 -34.526,-7.86 -50.265,0.002 L 9.7509856,130.99934 c -9.712,4.861 -15.747,14.627 -15.747,25.486 0,10.861 6.035,20.626 15.751,25.489 l 215.1160044,107.558 c 7.868,3.93 16.497,5.894 25.128,5.894 8.631,0 17.265,-1.965 25.134,-5.897 l 215.113,-107.556 c 10e-4,-0.001 0.002,-0.001 0.004,-0.002 9.712,-4.861 15.747,-14.627 15.747,-25.487 0,-10.86 -6.035,-20.624 -15.751,-25.487 z m -10.623,29.726 -215.108,107.554 c -9.088,4.539 -19.939,4.539 -29.025,0.002 L 20.383986,160.72634 c -2.281,-1.142 -2.622,-3.147 -2.622,-4.241 0,-1.093 0.341,-3.098 2.618,-4.237 L 235.48999,44.693337 c 4.544,-2.27 9.528,-3.405 14.514,-3.405 4.983,0 9.967,1.135 14.508,3.403 l 215.108,107.554003 c 2.281,1.142 2.622,3.147 2.622,4.24 0,1.094 -0.341,3.097 -2.619,4.238 z" 
     style="fill:rgba(254,251,218,1)"/>
  <path
     d="M 240.47526,269.88623 C 239.00201,269.31722 188.50814,244.20454 128.26666,214.08028 50.950369,175.41763 18.627583,158.89169 18.365718,157.89031 c -0.204033,-0.78022 -0.0917,-2.17353 0.249632,-3.09624 0.475202,-1.28459 26.044505,-14.38983 109.13562,-55.936122 59.68326,-29.842166 110.23699,-54.855831 112.34163,-55.585924 2.39835,-0.83198 6.1136,-1.326412 9.95394,-1.324685 5.06452,0.0023 7.18849,0.42102 12.24516,2.41414 3.36481,1.32626 53.98878,26.417681 112.49772,55.758711 l 106.37987,53.34733 0.23636,2.85037 0.23636,2.85038 -111.37164,55.67645 -111.37165,55.67646 -7.87242,0.19981 c -5.22774,0.1327 -8.77228,-0.14773 -10.55104,-0.83476 z"
     style="fill:rgba(254,251,218,.8)"/>
</svg>
