<?xml version="1.0" encoding="UTF-8" standalone="no"?>
<!-- Created with Inkscape (http://www.inkscape.org/) -->

<svg
   xmlns:dc="http://purl.org/dc/elements/1.1/"
   xmlns:cc="http://creativecommons.org/ns#"
   xmlns:rdf="http://www.w3.org/1999/02/22-rdf-syntax-ns#"
   xmlns:svg="http://www.w3.org/2000/svg"
   xmlns="http://www.w3.org/2000/svg"
   xmlns:sodipodi="http://sodipodi.sourceforge.net/DTD/sodipodi-0.dtd"
   xmlns:inkscape="http://www.inkscape.org/namespaces/inkscape"
   width="512"
   height="512"
   id="svg2"
   version="1.1"
   inkscape:version="0.48.4 r9939"
   sodipodi:docname="nypd.svg">
  <defs
     id="defs4" />
  <sodipodi:namedview
     id="base"
     pagecolor="#ffffff"
     bordercolor="#666666"
     borderopacity="1.0"
     inkscape:pageopacity="0.0"
     inkscape:pageshadow="2"
     inkscape:zoom="0.35"
     inkscape:cx="-70.714286"
     inkscape:cy="520"
     inkscape:document-units="px"
     inkscape:current-layer="layer1"
     showgrid="false"
     inkscape:window-width="1024"
     inkscape:window-height="1258"
     inkscape:window-x="1016"
     inkscape:window-y="-8"
     inkscape:window-maximized="1" />
  <metadata
     id="metadata7">
    <rdf:RDF>
      <cc:Work
         rdf:about="">
        <dc:format>image/svg+xml</dc:format>
        <dc:type
           rdf:resource="http://purl.org/dc/dcmitype/StillImage" />
        <dc:title></dc:title>
      </cc:Work>
    </rdf:RDF>
  </metadata>
  <g
     inkscape:label="Layer 1"
     inkscape:groupmode="layer"
     id="layer1"
     transform="translate(0,-540.36218)">
    <path
       style="fill:#0000ff;fill-opacity:1"
       d="m 252.7745,1024.179 c -1.2125,-1.2455 -3.56192,-3.833 -5.22093,-5.75 -6.03816,-6.9774 -14.80722,-12.5415 -26.71242,-16.9495 -2.89916,-1.0734 -18.9962,-5.59825 -35.7712,-10.05516 -60.64087,-16.11151 -82.67903,-25.30536 -102.110122,-42.5982 -12.61188,-11.22404 -21.87814,-23.71904 -29.33961,-39.56275 -9.13677,-19.40104 -12.55027,-34.49883 -12.55027,-55.50941 0,-28.73775 5.31297,-46.49484 31.93413,-106.73082 12.77253,-28.90054 16.07716,-38.19728 16.77992,-47.20602 1.1395,-14.60731 -6.62089,-29.8496 -22.46173,-44.11743 -15.98396,-14.39674 -16.48572,-14.95167 -15.38271,-17.01266 2.3126,-4.32113 77.153362,-69.88542 80.899862,-70.87237 1.66743,-0.43925 4.3202,0.74472 10,4.46314 16.03705,10.49906 31.74052,15.86796 49.23053,16.83156 17.4876,0.96346 31.98715,-2.65844 53.24936,-13.30136 l 10.74935,-5.38066 11.75065,5.86577 c 13.86173,6.91959 20.80472,9.41955 32.12353,11.56669 20.67208,3.92143 44.07232,-0.46494 62.48978,-11.7137 4.47553,-2.7335 9.97218,-6.02993 12.21478,-7.3254 l 4.07745,-2.35541 7.42255,6.20012 c 20.75953,17.34059 65.79583,57.59176 70.74398,63.22739 1.74821,1.9911 3.17857,4.25063 3.17857,5.02116 0,0.77053 -3.2625,4.08943 -7.25,7.37534 -25.82048,21.27739 -34.73381,39.99139 -29.20673,61.32109 0.8488,3.27563 7.86688,20.44058 15.59573,38.14435 28.45993,65.19051 32.71814,80.05024 31.55146,110.10399 -1.20125,30.94428 -11.52353,57.07303 -31.89977,80.74779 -19.58802,22.75895 -45.94733,35.26393 -110.29069,52.32242 -47.78195,12.66784 -54.70485,15.89544 -68.16467,31.77974 -3.68578,4.3497 -4.64718,4.535 -7.63078,1.4703 z m 7.29545,-15.3367 c 4.75386,-4.805 16.12097,-11.78124 24.07383,-14.77469 3.60212,-1.35584 23.02311,-6.98528 43.15776,-12.50987 53.31239,-14.62799 72.43993,-22.13803 89.7117,-35.2235 9.44168,-7.15322 14.32401,-12.22048 21.57364,-22.39082 17.71044,-24.84555 25.16677,-52.38674 22.48009,-83.03395 -1.82536,-20.82212 -6.19959,-33.68807 -30.75713,-90.46605 -7.73127,-17.875 -14.82097,-35.425 -15.75487,-39 -2.47346,-9.46839 -1.67847,-24.34957 1.75111,-32.77879 5.19313,-12.76366 13.3583,-23.30276 27.16842,-35.06734 2.69751,-2.29795 4.72251,-4.3194 4.5,-4.49209 -0.7661,-0.59462 -64.4082,-56.97944 -67.02587,-59.38275 l -2.62133,-2.40665 -7.51396,4.90517 c -14.7767,9.64633 -31.73119,15.05907 -49.74339,15.88062 -20.34119,0.92778 -34.24295,-2.05334 -54.91482,-11.77605 l -10.41481,-4.89846 -9.31098,4.55951 c -18.02994,8.82911 -32.42572,12.45304 -49.4784,12.45546 -18.77319,0.003 -34.60747,-4.33293 -52.98582,-14.50812 -5.45431,-3.01978 -10.15282,-5.49051 -10.44113,-5.49051 -0.72053,0 -69.454042,59.87906 -69.454042,60.50677 0,0.10722 5.55826,5.78962 12.35169,12.62755 10.4858,10.55449 12.90458,13.59772 16.01174,20.14543 4.70046,9.90529 6.63657,17.45566 6.63657,25.88113 0,12.55334 -0.29733,13.41255 -22.26484,64.33912 -14.91315,34.57266 -18.9732,45.23212 -23.04371,60.5 -2.89481,10.85799 -3.06629,12.5328 -3.07168,30 -0.005,15.62198 0.32958,19.84209 2.14954,27.12696 5.95349,23.83041 17.79727,44.7401 33.98179,59.99344 8.78624,8.28072 15.540812,12.68734 30.517372,19.90923 15.37152,7.41236 28.8283,11.87643 64.73153,21.47368 15.675,4.19007 32.325,8.76659 37,10.17004 13.65096,4.09809 26.88587,11.31253 33.43709,18.22683 1.6154,1.7049 3.1904,3.0855 3.5,3.0681 0.3096,-0.018 2.13791,-1.6237 4.06291,-3.5694 z m -15.90403,-38.06518 c -6.27222,-2.42741 -26.97222,-8.91988 -46,-14.42771 -53.87673,-15.59532 -65.97422,-19.91009 -79.62109,-28.39823 -16.15207,-10.04634 -30.165532,-30.24841 -35.528972,-51.21926 -2.4529,-9.59073 -2.70437,-33.44654 -0.45321,-42.99363 2.31362,-9.81192 9.31629,-28.26601 23.981982,-63.19947 16.85225,-40.14183 20.22952,-49.74635 21.61081,-61.45854 2.1352,-18.10469 -1.11635,-32.75481 -12.15911,-54.78372 l -6.08516,-12.13913 6.32939,-6.42004 c 8.26456,-8.38293 19.14145,-17.29397 21.10916,-17.29397 0.85643,0 6.65633,1.60922 12.88868,3.57604 23.76605,7.50015 43.74648,9.96084 60.88205,7.49793 8.78472,-1.26264 26.86456,-5.54682 37.89072,-8.97854 l 6.38229,-1.98639 14.22683,3.97234 c 21.49918,6.0029 28.08925,7.03193 44.94966,7.0188 17.6636,-0.0137 27.10243,-1.48874 45.31886,-7.0819 7.19793,-2.21006 13.74289,-4.01828 14.54435,-4.01828 2.93811,0 26.63679,20.89067 26.63679,23.48065 0,0.67452 -2.85767,7.25481 -6.35037,14.62287 -10.13359,21.3774 -10.15273,21.45941 -10.12957,43.39648 l 0.0201,19 3.33207,9 c 1.83264,4.95 9.19992,22.95 16.37173,40 24.05485,57.18711 26.833,65.99115 26.833,85.03462 0,17.22989 -2.57904,28.58909 -9.74203,42.908 -10.3794,20.74857 -24.73313,32.85501 -50.93616,42.96133 -5.0057,1.93066 -26.3807,8.50835 -47.5,14.61709 -34.53222,9.98843 -49.0534,14.60074 -62.89873,19.97831 l -4.5,1.74782 -11.40403,-4.41347 z"
       id="path2996"
       inkscape:connector-curvature="0" />
  </g>
</svg>
