<?xml version="1.0" encoding="UTF-8" standalone="no"?>
<svg
   xmlns:dc="http://purl.org/dc/elements/1.1/"
   xmlns:cc="http://creativecommons.org/ns#"
   xmlns:rdf="http://www.w3.org/1999/02/22-rdf-syntax-ns#"
   xmlns:svg="http://www.w3.org/2000/svg"
   xmlns="http://www.w3.org/2000/svg"
   xmlns:sodipodi="http://sodipodi.sourceforge.net/DTD/sodipodi-0.dtd"
   xmlns:inkscape="http://www.inkscape.org/namespaces/inkscape"
   width="1024"
   height="1024"
   id="svg2"
   version="1.1"
   inkscape:version="0.91 r13725"
   sodipodi:docname="icon.svg">
  <metadata
     id="metadata15">
    <rdf:RDF>
      <cc:Work
         rdf:about="">
        <dc:format>image/svg+xml</dc:format>
        <dc:type
           rdf:resource="http://purl.org/dc/dcmitype/StillImage" />
        <dc:title></dc:title>
      </cc:Work>
    </rdf:RDF>
  </metadata>
  <defs
     id="defs13" />
  <sodipodi:namedview
     pagecolor="#ffffff"
     bordercolor="#666666"
     borderopacity="1"
     objecttolerance="10"
     gridtolerance="10"
     guidetolerance="10"
     inkscape:pageopacity="0"
     inkscape:pageshadow="2"
     inkscape:window-width="748"
     inkscape:window-height="480"
     id="namedview11"
     showgrid="false"
     inkscape:zoom="0.23046875"
     inkscape:cx="-65.084746"
     inkscape:cy="512"
     inkscape:window-x="0"
     inkscape:window-y="0"
     inkscape:window-maximized="0"
     inkscape:current-layer="svg2" />
  <filter
     id="filter"
     style="color-interpolation-filters:sRGB"
     x="-0.035750399"
     width="1.0715008"
     y="-0.03625311"
     height="1.0725062">
    <feGaussianBlur
       stdDeviation="6.0015266"
       id="feGaussianBlur5" />
  </filter>
  <path
     style="opacity:0.1;fill:#085095;fill-opacity:1;stroke:#085095;stroke-width:10;stroke-opacity:1;filter:url(#filter)"
     d="M 868.91078,141.10492 C 806.53392,79.855774 695.84806,89.539532 621.70905,162.73227 547.57005,235.92501 492.08486,476.05139 510.9101,494.53629 529.73535,513.02119 773.473,457.74384 847.612,384.5511 921.751,311.35836 931.28764,202.35407 868.91078,141.10492 Z M 645.16036,361.99953 c -41.52967,-40.77885 -35.13918,-113.58881 14.19918,-162.29746 49.33837,-48.70864 123.27149,-55.19708 164.80115,-14.41823 41.52967,40.77885 35.13918,113.58881 -14.19918,162.29745 -49.33837,48.70864 -123.27149,55.19709 -164.80115,14.41824 z"
     id="path7" />
  <path
     style="fill:#085095;stroke:#fff;stroke-width:20"
     d="m 512,25.6 c -95.4279,0 -172.8,77.3721 -172.8,172.8 0,95.4279 144,288 172.8,288 28.8,0 172.8,-192.5721 172.8,-288 C 684.8,102.9721 607.4279,25.6 512,25.6 Z m 0,288 c -63.5346,0 -115.2,-51.6942 -115.2,-115.2 0,-63.5058 51.6654,-115.2 115.2,-115.2 63.5346,0 115.2,51.6942 115.2,115.2 0,63.5058 -51.6654,115.2 -115.2,115.2 z"
     id="path9" />
</svg>
